<svg width="35" height="35" viewBox="0 0 35 35" fill="none" xmlns="http://www.w3.org/2000/svg">
<g id="visibility">
<mask id="mask0_1597_55" style="mask-type:alpha" maskUnits="userSpaceOnUse" x="0" y="0" width="35" height="35">
<rect id="Bounding box" width="35" height="35" fill="#D9D9D9"/>
</mask>
<g mask="url(#mask0_1597_55)">
<path id="visibility_2" d="M17.5 23.3333C19.3229 23.3333 20.8726 22.6956 22.1491 21.42C23.4247 20.1435 24.0625 18.5938 24.0625 16.7708C24.0625 14.9479 23.4247 13.3982 22.1491 12.1217C20.8726 10.8461 19.3229 10.2083 17.5 10.2083C15.6771 10.2083 14.1273 10.8461 12.8508 12.1217C11.5753 13.3982 10.9375 14.9479 10.9375 16.7708C10.9375 18.5938 11.5753 20.1435 12.8508 21.42C14.1273 22.6956 15.6771 23.3333 17.5 23.3333ZM17.5 20.7083C16.4062 20.7083 15.4768 20.3253 14.7116 19.5592C13.9455 18.794 13.5625 17.8646 13.5625 16.7708C13.5625 15.6771 13.9455 14.7472 14.7116 13.981C15.4768 13.2159 16.4062 12.8333 17.5 12.8333C18.5937 12.8333 19.5237 13.2159 20.2898 13.981C21.0549 14.7472 21.4375 15.6771 21.4375 16.7708C21.4375 17.8646 21.0549 18.794 20.2898 19.5592C19.5237 20.3253 18.5937 20.7083 17.5 20.7083ZM17.5 27.7083C13.9514 27.7083 10.7187 26.7176 7.80206 24.7363C4.8854 22.7558 2.77081 20.1007 1.45831 16.7708C2.77081 13.441 4.8854 10.7854 7.80206 8.80396C10.7187 6.82354 13.9514 5.83334 17.5 5.83334C21.0486 5.83334 24.2812 6.82354 27.1979 8.80396C30.1146 10.7854 32.2291 13.441 33.5416 16.7708C32.2291 20.1007 30.1146 22.7558 27.1979 24.7363C24.2812 26.7176 21.0486 27.7083 17.5 27.7083ZM17.5 24.7917C20.2465 24.7917 22.7684 24.0683 25.0658 22.6217C27.3622 21.176 29.118 19.2257 30.3333 16.7708C29.118 14.316 27.3622 12.3652 25.0658 10.9185C22.7684 9.47285 20.2465 8.75 17.5 8.75C14.7535 8.75 12.2315 9.47285 9.93415 10.9185C7.63776 12.3652 5.88192 14.316 4.66665 16.7708C5.88192 19.2257 7.63776 21.176 9.93415 22.6217C12.2315 24.0683 14.7535 24.7917 17.5 24.7917Z" fill="#5D6A69"/>
</g>
</g>
</svg>
