<svg width="35" height="35" viewBox="0 0 35 35" fill="none" xmlns="http://www.w3.org/2000/svg">
<g id="visibility_off">
<mask id="mask0_1597_24" style="mask-type:alpha" maskUnits="userSpaceOnUse" x="0" y="0" width="35" height="35">
<rect id="Bounding box" width="35" height="35" fill="#D9D9D9"/>
</mask>
<g mask="url(#mask0_1597_24)">
<path id="visibility_off_2" d="M23.4792 19.3958L21.3646 17.2813C21.5834 16.1389 21.2552 15.0694 20.3802 14.0729C19.5052 13.0764 18.375 12.6875 16.9896 12.9063L14.875 10.7917C15.2882 10.5972 15.7073 10.4514 16.1321 10.3542C16.558 10.2569 17.0139 10.2083 17.5 10.2083C19.323 10.2083 20.8727 10.8461 22.1492 12.1217C23.4248 13.3982 24.0625 14.9479 24.0625 16.7708C24.0625 17.2569 24.0139 17.7129 23.9167 18.1388C23.8195 18.5636 23.6737 18.9826 23.4792 19.3958ZM28.1459 23.9896L26.0313 21.9479C26.9549 21.2431 27.7755 20.4711 28.493 19.6321C29.2095 18.794 29.823 17.8403 30.3334 16.7708C29.1181 14.316 27.3739 12.3652 25.1009 10.9185C22.8288 9.47285 20.2952 8.75 17.5 8.75C16.7952 8.75 16.1025 8.79861 15.4219 8.89584C14.7414 8.99306 14.073 9.13889 13.4167 9.33334L11.1563 7.07292C12.1528 6.65972 13.1737 6.34959 14.2188 6.1425C15.2639 5.93639 16.3577 5.83334 17.5 5.83334C21.1702 5.83334 24.4393 6.84785 27.3073 8.87688C30.1754 10.9069 32.2535 13.5382 33.5417 16.7708C32.9827 18.2049 32.2477 19.5358 31.3367 20.7638C30.4248 21.9907 29.3611 23.066 28.1459 23.9896ZM28.875 32.9583L22.75 26.9063C21.8993 27.1736 21.0428 27.3744 20.1805 27.5085C19.3171 27.6417 18.4237 27.7083 17.5 27.7083C13.8299 27.7083 10.5608 26.6938 7.69275 24.6648C4.82469 22.6348 2.74657 20.0035 1.45837 16.7708C1.96879 15.4826 2.61289 14.2853 3.39067 13.179C4.16844 12.0735 5.0556 11.0833 6.05212 10.2083L2.04171 6.125L4.08337 4.08334L30.9167 30.9167L28.875 32.9583ZM8.09379 12.25C7.38893 12.8819 6.74483 13.5747 6.1615 14.3281C5.57817 15.0816 5.0799 15.8958 4.66671 16.7708C5.88198 19.2257 7.62567 21.176 9.89775 22.6217C12.1708 24.0683 14.7049 24.7917 17.5 24.7917C17.9862 24.7917 18.4601 24.7615 18.9219 24.7013C19.3837 24.64 19.8577 24.5729 20.3438 24.5L19.0313 23.1146C18.7639 23.1875 18.5087 23.2419 18.2657 23.2779C18.0226 23.3149 17.7674 23.3333 17.5 23.3333C15.6771 23.3333 14.1274 22.6956 12.8509 21.42C11.5753 20.1435 10.9375 18.5938 10.9375 16.7708C10.9375 16.5035 10.9555 16.2483 10.9915 16.0052C11.0284 15.7622 11.0834 15.5069 11.1563 15.2396L8.09379 12.25Z" fill="#5D6A69"/>
</g>
</g>
</svg>
